<?xml version="1.0" encoding="utf-8"?>
<!-- Generator: Adobe Illustrator 15.0.0, SVG Export Plug-In . SVG Version: 6.00 Build 0)  -->
<!DOCTYPE svg PUBLIC "-//W3C//DTD SVG 1.1//EN" "http://www.w3.org/Graphics/SVG/1.1/DTD/svg11.dtd">
<svg version="1.1" id="Layer_1" xmlns="http://www.w3.org/2000/svg" xmlns:xlink="http://www.w3.org/1999/xlink" x="0px" y="0px"
	 width="214px" height="212.5px" viewBox="0 0 214 212.5" enable-background="new 0 0 214 212.5" xml:space="preserve">
<g>
	<path fill="#EB2D2E" d="M103.426,146.561c0.24,0.49,0.983,0.992,1.6,0.992l0,0h0.992l0,0c0.615,0,1.725,0,2.341,0l0,0h0.983l0,0
		c0.616,0,1.357-0.502,1.607-0.992l0,0l17.623-44.877l0,0c1.115-2.339,1.976-2.213,1.976,0.374l0,0v27.494l0,0
		c0,2.713-1.482,4.807-3.199,4.807c-1.735,0-3.084,2.095-3.084,4.807l0,0v11.344h29.956v-8.134l0.123-3.21l0,0
		c0-2.712-1.48-4.807-3.203-4.807c-1.479,0-2.596-1.355-3.084-3.201l0,0v-45.74c0-2.596,1.231-4.686,3.084-4.686
		c1.723,0,3.203-2.22,3.203-4.812l0,0V63.347h-27.247l-20.338,48.826L86.41,63.347H58.925V75.92l0,0
		c0,2.592,1.349,4.812,3.082,4.812c1.85,0,3.199,2.09,3.199,4.686l0,0v44.134l0,0c0,2.713-1.35,4.807-3.199,4.807
		c-1.733,0-3.082,2.095-3.082,4.807l0,0l-0.124,11.344h30.076v-11.344l0,0c0-2.712-1.355-4.807-3.081-4.807
		c-1.725,0-3.201-2.094-3.201-4.807l0,0v-27.494l0,0c0-2.587,0.858-2.713,1.968-0.374l0,0L103.426,146.561L103.426,146.561z"/>
	<path fill="#EB2D2E" d="M107.003,7.74c54.249,0,98.5,44.263,98.5,98.51c0,54.25-44.251,98.511-98.5,98.511
		c-54.245,0-98.505-44.261-98.505-98.511C8.498,52.003,52.758,7.74,107.003,7.74L107.003,7.74z M107.003,27.347
		c-43.396,0-78.901,35.382-78.901,78.903c0,43.393,35.505,78.906,78.901,78.906c43.518,0,78.905-35.514,78.905-78.906
		C185.908,62.729,150.521,27.347,107.003,27.347z"/>
</g>
</svg>
